<svg width="287" height="54" viewBox="0 0 287 54" fill="none" xmlns="http://www.w3.org/2000/svg">
<path d="M11.264 53.008C9.488 53.008 7.808 52.768 6.224 52.288C4.688 51.808 3.44 51.112 2.48 50.2C1.472 49.24 0.968 48.04 0.968 46.6C0.968 45.64 1.28 44.872 1.904 44.296C2.48 43.672 3.248 43.36 4.208 43.36C5.456 43.36 6.344 43.768 6.872 44.584C7.4 45.4 7.784 46.36 8.024 47.464C8.312 48.52 8.624 49.432 8.96 50.2C9.296 50.968 10.136 51.352 11.48 51.352C12.824 51.352 13.928 50.728 14.792 49.48C15.656 48.184 16.472 46.408 17.24 44.152C18.056 41.896 18.944 39.304 19.904 36.376L29.264 7.792C29.408 7.264 29.528 6.784 29.624 6.352C29.72 5.92 29.768 5.536 29.768 5.2C29.768 4.336 29.384 3.736 28.616 3.4C27.848 3.064 26.48 2.8 24.512 2.608L23.144 2.464L23.72 0.663996L34.448 0.879997L45.176 0.663996L44.6 2.464L43.088 2.608C41.456 2.752 40.088 3.04 38.984 3.472C37.88 3.904 36.944 4.672 36.176 5.776C35.456 6.88 34.736 8.512 34.016 10.672L24.008 41.416C23.528 43 23.024 44.488 22.496 45.88C21.968 47.272 21.272 48.496 20.408 49.552C19.544 50.608 18.392 51.448 16.952 52.072C15.512 52.696 13.616 53.008 11.264 53.008ZM47.6015 53.008C45.3455 53.008 43.4975 52.552 42.0575 51.64C40.6175 50.68 39.5615 49.432 38.8895 47.896C38.2175 46.312 37.8815 44.632 37.8815 42.856C37.8815 39.832 38.5295 36.904 39.8255 34.072C41.1215 31.24 42.8015 28.72 44.8655 26.512C46.9775 24.304 49.2575 22.552 51.7055 21.256C54.1535 19.96 56.5535 19.312 58.9055 19.312C61.1135 19.312 62.7695 20.032 63.8735 21.472C65.0255 22.912 65.6975 24.76 65.8895 27.016L68.3375 20.32H73.0895L64.0895 45.88C63.8975 46.6 63.7295 47.248 63.5855 47.824C63.4415 48.352 63.3695 48.808 63.3695 49.192C63.3695 50.152 63.7535 50.632 64.5215 50.632C65.5775 50.632 66.6095 50.08 67.6175 48.976C68.6255 47.872 69.4415 46.792 70.0655 45.736L71.3615 46.6C70.4495 48.088 69.2735 49.528 67.8335 50.92C66.3935 52.312 64.6415 53.008 62.5775 53.008C61.0895 53.008 60.0335 52.648 59.4095 51.928C58.8335 51.208 58.5455 50.248 58.5455 49.048C58.5455 48.136 58.6895 47.104 58.9775 45.952C57.3935 48.16 55.6415 49.888 53.7215 51.136C51.8015 52.384 49.7615 53.008 47.6015 53.008ZM48.3215 51.136C51.0575 51.136 53.6255 49.84 56.0255 47.248C58.4255 44.608 60.4895 41.152 62.2175 36.88L63.0815 34.432C63.8975 32.032 64.3055 29.824 64.3055 27.808C64.3055 25.84 63.8975 24.256 63.0815 23.056C62.2655 21.808 61.0175 21.184 59.3375 21.184C57.4175 21.184 55.4975 21.928 53.5775 23.416C51.7055 24.856 49.9775 26.752 48.3935 29.104C46.8575 31.456 45.6095 33.976 44.6495 36.664C43.7375 39.304 43.2815 41.848 43.2815 44.296C43.2815 46.552 43.7375 48.256 44.6495 49.408C45.5615 50.56 46.7855 51.136 48.3215 51.136ZM118.464 53.008C116.784 53.008 115.584 52.624 114.864 51.856C114.192 51.088 113.856 50.056 113.856 48.76C113.856 47.848 113.976 46.864 114.216 45.808C114.504 44.704 114.864 43.528 115.296 42.28L121.128 26.368C121.464 25.408 121.632 24.544 121.632 23.776C121.632 22.816 121.368 22.144 120.84 21.76C120.312 21.328 119.664 21.112 118.896 21.112C117.696 21.112 116.424 21.472 115.08 22.192C113.736 22.912 112.44 23.848 111.192 25C109.992 26.152 108.912 27.424 107.952 28.816C106.992 30.16 106.272 31.48 105.792 32.776L98.8081 52H93.4801L102.84 26.368C103.176 25.408 103.344 24.568 103.344 23.848C103.344 22.888 103.08 22.192 102.552 21.76C102.024 21.328 101.376 21.112 100.608 21.112C99.3121 21.112 97.9681 21.52 96.5761 22.336C95.2321 23.104 93.9361 24.136 92.6881 25.432C91.4401 26.68 90.3361 28.024 89.3761 29.464C88.4161 30.856 87.6961 32.2 87.2161 33.496L80.5201 52H75.3361L84.2641 27.232C84.7441 25.984 84.9841 24.976 84.9841 24.208C84.9841 23.008 84.5041 22.36 83.5441 22.264C82.5841 22.12 81.4321 22.048 80.0881 22.048L80.6641 20.32L91.2481 20.104L89.1601 27.088C90.6961 25.072 92.5441 23.272 94.7041 21.688C96.8641 20.104 99.2881 19.312 101.976 19.312C104.28 19.312 105.84 19.816 106.656 20.824C107.52 21.784 107.952 23.008 107.952 24.496C107.952 25.168 107.88 25.912 107.736 26.728C109.224 24.76 111.024 23.032 113.136 21.544C115.296 20.056 117.672 19.312 120.264 19.312C122.52 19.312 124.104 19.816 125.016 20.824C125.976 21.784 126.456 22.984 126.456 24.424C126.456 25.672 126.216 26.92 125.736 28.168L119.76 44.584C119.52 45.352 119.304 46.096 119.112 46.816C118.968 47.536 118.896 48.184 118.896 48.76C118.896 49.288 118.992 49.744 119.184 50.128C119.376 50.464 119.712 50.632 120.192 50.632C121.008 50.632 121.896 50.128 122.856 49.12C123.864 48.064 124.68 47.008 125.304 45.952L126.6 46.816C125.688 48.304 124.536 49.72 123.144 51.064C121.8 52.36 120.24 53.008 118.464 53.008ZM128.711 52.216L129.287 50.416L130.799 50.272C133.439 50.032 135.335 49.36 136.487 48.256C137.687 47.152 138.671 45.424 139.439 43.072L151.175 7.648C151.319 7.12 151.439 6.688 151.535 6.352C151.631 5.968 151.679 5.608 151.679 5.272C151.679 4.408 151.271 3.808 150.455 3.472C149.687 3.088 148.319 2.8 146.351 2.608L144.983 2.464L145.559 0.663996L155.999 0.879997L160.463 0.807998C163.823 0.759999 166.799 1.072 169.391 1.744C171.983 2.368 174.023 3.448 175.511 4.984C177.047 6.52 177.863 8.608 177.959 11.248C178.007 12.976 177.695 14.536 177.023 15.928C176.351 17.272 175.487 18.472 174.431 19.528C173.039 20.872 171.383 21.976 169.463 22.84C167.543 23.656 165.527 24.256 163.415 24.64C167.015 25.312 169.823 26.584 171.839 28.456C173.855 30.328 174.863 32.824 174.863 35.944C174.863 37.864 174.479 39.616 173.711 41.2C172.991 42.784 171.983 44.224 170.687 45.52C168.575 47.632 165.767 49.24 162.263 50.344C158.807 51.448 154.823 52 150.311 52H139.439L128.711 52.216ZM159.023 2.68H158.375L151.535 23.416H158.159C162.335 23.416 165.695 22.288 168.239 20.032C170.783 17.728 171.983 14.656 171.839 10.816C171.791 7.888 170.639 5.776 168.383 4.48C166.127 3.184 163.007 2.584 159.023 2.68ZM149.735 50.128C153.383 50.128 156.647 49.504 159.527 48.256C162.407 46.96 164.663 45.184 166.295 42.928C167.975 40.624 168.815 38.008 168.815 35.08C168.815 31.384 167.807 28.816 165.791 27.376C163.775 25.936 160.967 25.216 157.367 25.216H150.959L144.623 44.368C144.527 44.704 144.431 45.112 144.335 45.592C144.239 46.072 144.191 46.48 144.191 46.816C144.191 48.064 144.671 48.928 145.631 49.408C146.591 49.888 147.959 50.128 149.735 50.128ZM192.362 53.008C189.818 53.008 187.682 52.48 185.954 51.424C184.226 50.32 182.93 48.88 182.066 47.104C181.25 45.28 180.842 43.336 180.842 41.272C180.842 38.392 181.37 35.656 182.426 33.064C183.53 30.424 185.018 28.072 186.89 26.008C188.81 23.944 190.994 22.312 193.442 21.112C195.89 19.912 198.458 19.312 201.146 19.312C203.738 19.312 205.898 19.864 207.626 20.968C209.354 22.024 210.626 23.416 211.442 25.144C212.306 26.872 212.738 28.768 212.738 30.832C212.738 33.712 212.186 36.496 211.082 39.184C210.026 41.824 208.538 44.2 206.618 46.312C204.746 48.376 202.586 50.008 200.138 51.208C197.69 52.408 195.098 53.008 192.362 53.008ZM192.29 51.424C194.066 51.424 195.722 50.92 197.258 49.912C198.794 48.856 200.186 47.488 201.434 45.808C202.73 44.128 203.834 42.28 204.746 40.264C205.658 38.248 206.354 36.256 206.834 34.288C207.362 32.272 207.626 30.448 207.626 28.816C207.626 23.536 205.514 20.896 201.29 20.896C199.514 20.896 197.858 21.4 196.322 22.408C194.786 23.416 193.37 24.76 192.074 26.44C190.826 28.12 189.746 29.968 188.834 31.984C187.922 33.952 187.202 35.92 186.674 37.888C186.194 39.856 185.954 41.656 185.954 43.288C185.954 48.712 188.066 51.424 192.29 51.424ZM229.346 53.008C226.802 53.008 224.666 52.48 222.938 51.424C221.21 50.32 219.914 48.88 219.05 47.104C218.234 45.28 217.826 43.336 217.826 41.272C217.826 38.392 218.354 35.656 219.41 33.064C220.514 30.424 222.002 28.072 223.874 26.008C225.794 23.944 227.978 22.312 230.426 21.112C232.874 19.912 235.442 19.312 238.13 19.312C240.722 19.312 242.882 19.864 244.61 20.968C246.338 22.024 247.61 23.416 248.426 25.144C249.29 26.872 249.722 28.768 249.722 30.832C249.722 33.712 249.17 36.496 248.066 39.184C247.01 41.824 245.522 44.2 243.602 46.312C241.73 48.376 239.57 50.008 237.122 51.208C234.674 52.408 232.082 53.008 229.346 53.008ZM229.274 51.424C231.05 51.424 232.706 50.92 234.242 49.912C235.778 48.856 237.17 47.488 238.418 45.808C239.714 44.128 240.818 42.28 241.73 40.264C242.642 38.248 243.338 36.256 243.818 34.288C244.346 32.272 244.61 30.448 244.61 28.816C244.61 23.536 242.498 20.896 238.274 20.896C236.498 20.896 234.842 21.4 233.306 22.408C231.77 23.416 230.354 24.76 229.058 26.44C227.81 28.12 226.73 29.968 225.818 31.984C224.906 33.952 224.186 35.92 223.658 37.888C223.178 39.856 222.938 41.656 222.938 43.288C222.938 48.712 225.05 51.424 229.274 51.424ZM257.763 52H252.579L267.051 7.648C267.387 6.64 267.555 5.776 267.555 5.056C267.555 4.144 267.291 3.52 266.763 3.184C266.283 2.848 265.635 2.68 264.819 2.68C264.051 2.632 263.211 2.608 262.299 2.608L262.803 0.879997L274.395 0.663996L264.387 31.48C266.307 31.24 267.843 30.688 268.995 29.824C270.195 28.96 271.467 27.832 272.811 26.44L275.475 23.632C276.819 22.24 277.995 21.184 279.003 20.464C280.011 19.696 281.115 19.312 282.315 19.312C283.611 19.312 284.547 19.6 285.123 20.176C285.747 20.704 286.155 21.328 286.347 22.048C286.539 22.72 286.635 23.296 286.635 23.776C286.635 24.832 286.347 25.768 285.771 26.584C285.243 27.352 284.499 27.736 283.539 27.736C282.915 27.736 282.315 27.544 281.739 27.16C281.163 26.728 280.875 26.056 280.875 25.144C280.875 24.328 280.851 23.752 280.803 23.416C280.755 23.032 280.659 22.744 280.515 22.552C280.371 22.312 280.131 22.192 279.795 22.192C279.315 22.192 278.835 22.384 278.355 22.768C277.875 23.152 277.299 23.704 276.627 24.424L273.675 27.52C272.715 28.528 271.827 29.392 271.011 30.112C270.243 30.832 269.307 31.384 268.203 31.768C271.323 32.152 273.411 33.136 274.467 34.72C275.571 36.304 276.147 38.8 276.195 42.208C276.243 44.56 276.291 46.36 276.339 47.608C276.435 48.808 276.627 49.624 276.915 50.056C277.203 50.44 277.659 50.632 278.283 50.632C278.907 50.632 279.699 50.272 280.659 49.552C281.667 48.784 282.651 47.584 283.611 45.952L284.835 46.816C283.587 49.072 282.171 50.68 280.587 51.64C279.003 52.552 277.515 53.008 276.123 53.008C274.059 53.008 272.739 52.24 272.163 50.704C271.587 49.168 271.299 46.432 271.299 42.496C271.299 40 271.083 38.032 270.651 36.592C270.267 35.152 269.547 34.144 268.491 33.568C267.483 32.944 265.995 32.632 264.027 32.632L257.763 52Z" fill="#4200FF"/>
</svg>
